<?xml version="1.0" encoding="UTF-8"?>
<svg xmlns="http://www.w3.org/2000/svg" width="494" height="1096" viewBox="0 0 494 1096">
<style>
text{font-family:DejaVu Sans,Arial,sans-serif}
.title{fill:#f4bf2a;font-size:24px;font-weight:700}
.meta{fill:#aab2bf;font-size:12px}
.name{fill:#f4f6fa;font-size:13px;font-weight:700}
.detail{fill:#c5ccd6;font-size:11px}
.edge{fill:none;stroke:#7f8998;stroke-width:2}
</style>
<rect width="494" height="1096" fill="#10131a"/>
<text class="title" x="42" y="38">Diviner Ability Tree</text>
<text class="meta" x="42" y="62">Tier 2 · 13 nodes · Runes · Foresight</text>
<path class="edge" d="M 136.0 123.0 V 173.0 H 136.0 V 223.0"/>
<path class="edge" d="M 136.0 223.0 V 273.0 H 136.0 V 323.0"/>
<path class="edge" d="M 136.0 323.0 V 373.0 H 136.0 V 423.0"/>
<path class="edge" d="M 136.0 423.0 V 473.0 H 136.0 V 523.0"/>
<path class="edge" d="M 136.0 523.0 V 573.0 H 136.0 V 623.0"/>
<path class="edge" d="M 136.0 623.0 V 673.0 H 136.0 V 723.0"/>
<path class="edge" d="M 136.0 723.0 V 773.0 H 136.0 V 823.0"/>
<path class="edge" d="M 358.0 123.0 V 173.0 H 358.0 V 223.0"/>
<path class="edge" d="M 136.0 823.0 V 873.0 H 136.0 V 923.0"/>
<path class="edge" d="M 358.0 223.0 V 273.0 H 358.0 V 323.0"/>
<path class="edge" d="M 136.0 923.0 V 973.0 H 136.0 V 1023.0"/>
<rect x="42.0" y="92.0" width="188" height="62" rx="8" fill="#133047" stroke="#54b8ed" stroke-width="2"/>
<text class="name" x="52.0" y="116.0">Learn Spell</text>
<text class="detail" x="52.0" y="137.0">Ability · Cost 1 · Level 35</text>
<rect x="42.0" y="192.0" width="188" height="62" rx="8" fill="#133047" stroke="#54b8ed" stroke-width="2"/>
<text class="name" x="52.0" y="216.0">Enfeeble</text>
<text class="detail" x="52.0" y="237.0">Ability · Cost 1 · Level 40</text>
<rect x="42.0" y="292.0" width="188" height="62" rx="8" fill="#133047" stroke="#54b8ed" stroke-width="2"/>
<text class="name" x="52.0" y="316.0">Haste</text>
<text class="detail" x="52.0" y="337.0">Ability · Cost 1 · Level 45</text>
<rect x="42.0" y="392.0" width="188" height="62" rx="8" fill="#133047" stroke="#54b8ed" stroke-width="2"/>
<text class="name" x="52.0" y="416.0">Dispel</text>
<text class="detail" x="52.0" y="437.0">Ability · Cost 1 · Level 50</text>
<rect x="42.0" y="492.0" width="188" height="62" rx="8" fill="#133047" stroke="#54b8ed" stroke-width="2"/>
<text class="name" x="52.0" y="516.0">Doublecast</text>
<text class="detail" x="52.0" y="537.0">Ability · Cost 1 · Level 55</text>
<rect x="42.0" y="592.0" width="188" height="62" rx="8" fill="#133047" stroke="#54b8ed" stroke-width="2"/>
<text class="name" x="52.0" y="616.0">Berserk</text>
<text class="detail" x="52.0" y="637.0">Ability · Cost 1 · Level 55</text>
<rect x="42.0" y="692.0" width="188" height="62" rx="8" fill="#30254a" stroke="#ae84e8" stroke-width="2"/>
<text class="name" x="52.0" y="716.0">Runic Focus</text>
<text class="detail" x="52.0" y="737.0">Talent · Cost 1 · Level 55</text>
<rect x="264.0" y="92.0" width="188" height="62" rx="8" fill="#30254a" stroke="#ae84e8" stroke-width="2"/>
<text class="name" x="274.0" y="116.0">Foreseen Defense</text>
<text class="detail" x="274.0" y="137.0">Talent · Cost 1 · Level 35</text>
<rect x="42.0" y="792.0" width="188" height="62" rx="8" fill="#30254a" stroke="#ae84e8" stroke-width="2"/>
<text class="name" x="52.0" y="816.0">Runic Focus 2</text>
<text class="detail" x="52.0" y="837.0">Talent · Cost 1 · Level 55</text>
<rect x="264.0" y="192.0" width="188" height="62" rx="8" fill="#30254a" stroke="#ae84e8" stroke-width="2"/>
<text class="name" x="274.0" y="216.0">Foreseen Defense 2</text>
<text class="detail" x="274.0" y="237.0">Talent · Cost 1 · Level 40</text>
<rect x="42.0" y="892.0" width="188" height="62" rx="8" fill="#30254a" stroke="#ae84e8" stroke-width="2"/>
<text class="name" x="52.0" y="916.0">Runic Focus 3</text>
<text class="detail" x="52.0" y="937.0">Talent · Cost 1 · Level 55</text>
<rect x="264.0" y="292.0" width="188" height="62" rx="8" fill="#30254a" stroke="#ae84e8" stroke-width="2"/>
<text class="name" x="274.0" y="316.0">Foreseen Defense 3</text>
<text class="detail" x="274.0" y="337.0">Talent · Cost 1 · Level 45</text>
<rect x="42.0" y="992.0" width="188" height="62" rx="8" fill="#3b2d12" stroke="#f4bf2a" stroke-width="2"/>
<text class="name" x="52.0" y="1016.0">Promote: Astromancer</text>
<text class="detail" x="52.0" y="1037.0">Promotion · Cost 3 · Level 60</text>
</svg>
