<?xml version="1.0" encoding="UTF-8"?>
<svg xmlns="http://www.w3.org/2000/svg" width="1604" height="796" viewBox="0 0 1604 796">
<style>
text{font-family:DejaVu Sans,Arial,sans-serif}
.title{fill:#f4bf2a;font-size:24px;font-weight:700}
.meta{fill:#aab2bf;font-size:12px}
.name{fill:#f4f6fa;font-size:13px;font-weight:700}
.detail{fill:#c5ccd6;font-size:11px}
.edge{fill:none;stroke:#7f8998;stroke-width:2}
</style>
<rect width="1604" height="796" fill="#10131a"/>
<text class="title" x="42" y="38">Pathfinder Ability Tree</text>
<text class="meta" x="42" y="62">Tier 1 · 44 nodes · Druid · Naturalism · Ranger · Melee · Shaman · Elemental · Diviner</text>
<path class="edge" d="M 136.0 123.0 V 173.0 H 136.0 V 223.0"/>
<path class="edge" d="M 136.0 223.0 V 273.0 H 136.0 V 323.0"/>
<path class="edge" d="M 136.0 323.0 V 373.0 H 136.0 V 423.0"/>
<path class="edge" d="M 136.0 423.0 V 473.0 H 136.0 V 523.0"/>
<path class="edge" d="M 136.0 523.0 V 573.0 H 136.0 V 623.0"/>
<path class="edge" d="M 358.0 123.0 V 173.0 H 358.0 V 223.0"/>
<path class="edge" d="M 358.0 223.0 V 273.0 H 358.0 V 323.0"/>
<path class="edge" d="M 358.0 323.0 V 423.0 H 358.0 V 523.0"/>
<path class="edge" d="M 358.0 523.0 V 573.0 H 358.0 V 623.0"/>
<path class="edge" d="M 580.0 123.0 V 173.0 H 580.0 V 223.0"/>
<path class="edge" d="M 580.0 223.0 V 273.0 H 580.0 V 323.0"/>
<path class="edge" d="M 580.0 323.0 V 373.0 H 580.0 V 423.0"/>
<path class="edge" d="M 580.0 423.0 V 473.0 H 580.0 V 523.0"/>
<path class="edge" d="M 580.0 523.0 V 573.0 H 580.0 V 623.0"/>
<path class="edge" d="M 802.0 123.0 V 173.0 H 802.0 V 223.0"/>
<path class="edge" d="M 802.0 223.0 V 273.0 H 802.0 V 323.0"/>
<path class="edge" d="M 802.0 323.0 V 423.0 H 802.0 V 523.0"/>
<path class="edge" d="M 802.0 523.0 V 573.0 H 802.0 V 623.0"/>
<path class="edge" d="M 1024.0 123.0 V 173.0 H 1024.0 V 223.0"/>
<path class="edge" d="M 1024.0 223.0 V 273.0 H 1024.0 V 323.0"/>
<path class="edge" d="M 1024.0 323.0 V 373.0 H 1024.0 V 423.0"/>
<path class="edge" d="M 1024.0 423.0 V 473.0 H 1024.0 V 523.0"/>
<path class="edge" d="M 1024.0 523.0 V 573.0 H 1024.0 V 623.0"/>
<path class="edge" d="M 1246.0 123.0 V 173.0 H 1246.0 V 223.0"/>
<path class="edge" d="M 1246.0 223.0 V 273.0 H 1246.0 V 323.0"/>
<path class="edge" d="M 1246.0 323.0 V 373.0 H 1246.0 V 423.0"/>
<path class="edge" d="M 1246.0 423.0 V 473.0 H 1246.0 V 523.0"/>
<path class="edge" d="M 1246.0 523.0 V 573.0 H 1246.0 V 623.0"/>
<path class="edge" d="M 1468.0 123.0 V 173.0 H 1468.0 V 223.0"/>
<path class="edge" d="M 1468.0 223.0 V 273.0 H 1468.0 V 323.0"/>
<path class="edge" d="M 1468.0 323.0 V 373.0 H 1468.0 V 423.0"/>
<path class="edge" d="M 1468.0 423.0 V 473.0 H 1468.0 V 523.0"/>
<path class="edge" d="M 1468.0 523.0 V 573.0 H 1468.0 V 623.0"/>
<path class="edge" d="M 136.0 623.0 V 723.0 H 247.0 V 723.0"/>
<path class="edge" d="M 358.0 623.0 V 723.0 H 247.0 V 723.0"/>
<path class="edge" d="M 358.0 323.0 V 723.0 H 580.0 V 723.0"/>
<path class="edge" d="M 580.0 623.0 V 723.0 H 580.0 V 723.0"/>
<path class="edge" d="M 802.0 323.0 V 723.0 H 580.0 V 723.0"/>
<path class="edge" d="M 802.0 323.0 V 723.0 H 1024.0 V 723.0"/>
<path class="edge" d="M 1024.0 623.0 V 723.0 H 1024.0 V 723.0"/>
<path class="edge" d="M 1246.0 323.0 V 723.0 H 1024.0 V 723.0"/>
<path class="edge" d="M 1246.0 323.0 V 723.0 H 1357.0 V 723.0"/>
<path class="edge" d="M 1468.0 623.0 V 723.0 H 1357.0 V 723.0"/>
<rect x="42.0" y="92.0" width="188" height="62" rx="8" fill="#133047" stroke="#54b8ed" stroke-width="2"/>
<text class="name" x="52.0" y="116.0">Poison Dart</text>
<text class="detail" x="52.0" y="137.0">Ability · Cost 1</text>
<rect x="42.0" y="192.0" width="188" height="62" rx="8" fill="#133047" stroke="#54b8ed" stroke-width="2"/>
<text class="name" x="52.0" y="216.0">Regrowth</text>
<text class="detail" x="52.0" y="237.0">Ability · Cost 1 · Level 5</text>
<rect x="42.0" y="292.0" width="188" height="62" rx="8" fill="#133047" stroke="#54b8ed" stroke-width="2"/>
<text class="name" x="52.0" y="316.0">Ray of Moonlight</text>
<text class="detail" x="52.0" y="337.0">Ability · Cost 1 · Level 10</text>
<rect x="42.0" y="392.0" width="188" height="62" rx="8" fill="#133047" stroke="#54b8ed" stroke-width="2"/>
<text class="name" x="52.0" y="416.0">Nullify Poison</text>
<text class="detail" x="52.0" y="437.0">Ability · Cost 1 · Level 15</text>
<rect x="42.0" y="492.0" width="188" height="62" rx="8" fill="#133047" stroke="#54b8ed" stroke-width="2"/>
<text class="name" x="52.0" y="516.0">Thorny Vine</text>
<text class="detail" x="52.0" y="537.0">Ability · Cost 1 · Level 20</text>
<rect x="42.0" y="592.0" width="188" height="62" rx="8" fill="#133047" stroke="#54b8ed" stroke-width="2"/>
<text class="name" x="52.0" y="616.0">Poison Strike</text>
<text class="detail" x="52.0" y="637.0">Ability · Cost 1 · Level 25</text>
<rect x="264.0" y="92.0" width="188" height="62" rx="8" fill="#133047" stroke="#54b8ed" stroke-width="2"/>
<text class="name" x="274.0" y="116.0">Natural Attunement</text>
<text class="detail" x="274.0" y="137.0">Ability · Cost 1</text>
<rect x="264.0" y="192.0" width="188" height="62" rx="8" fill="#263b2b" stroke="#72c987" stroke-width="2"/>
<text class="name" x="274.0" y="216.0">Razor Talons</text>
<text class="detail" x="274.0" y="237.0">Ability · Cost 1 · Level 5</text>
<rect x="264.0" y="292.0" width="188" height="62" rx="8" fill="#133047" stroke="#54b8ed" stroke-width="2"/>
<text class="name" x="274.0" y="316.0">Call Animal</text>
<text class="detail" x="274.0" y="337.0">Ability · Cost 1 · Level 10</text>
<rect x="264.0" y="492.0" width="188" height="62" rx="8" fill="#133047" stroke="#54b8ed" stroke-width="2"/>
<text class="name" x="274.0" y="516.0">Detect Animal</text>
<text class="detail" x="274.0" y="537.0">Ability · Cost 1 · Level 20</text>
<rect x="264.0" y="592.0" width="188" height="62" rx="8" fill="#133047" stroke="#54b8ed" stroke-width="2"/>
<text class="name" x="274.0" y="616.0">Creature Comforts</text>
<text class="detail" x="274.0" y="637.0">Ability · Cost 1 · Level 25</text>
<rect x="486.0" y="92.0" width="188" height="62" rx="8" fill="#133047" stroke="#54b8ed" stroke-width="2"/>
<text class="name" x="496.0" y="116.0">Stumble Upon</text>
<text class="detail" x="496.0" y="137.0">Ability · Cost 1</text>
<rect x="486.0" y="192.0" width="188" height="62" rx="8" fill="#133047" stroke="#54b8ed" stroke-width="2"/>
<text class="name" x="496.0" y="216.0">Zephyrstrike</text>
<text class="detail" x="496.0" y="237.0">Ability · Cost 1 · Level 5</text>
<rect x="486.0" y="292.0" width="188" height="62" rx="8" fill="#263b2b" stroke="#72c987" stroke-width="2"/>
<text class="name" x="496.0" y="316.0">Cautious Assault</text>
<text class="detail" x="496.0" y="337.0">Ability · Cost 1 · Level 10</text>
<rect x="486.0" y="392.0" width="188" height="62" rx="8" fill="#263b2b" stroke="#72c987" stroke-width="2"/>
<text class="name" x="496.0" y="416.0">Honed Attack</text>
<text class="detail" x="496.0" y="437.0">Ability · Cost 1 · Level 15</text>
<rect x="486.0" y="492.0" width="188" height="62" rx="8" fill="#133047" stroke="#54b8ed" stroke-width="2"/>
<text class="name" x="496.0" y="516.0">Unnatural Purge</text>
<text class="detail" x="496.0" y="537.0">Ability · Cost 1 · Level 20</text>
<rect x="486.0" y="592.0" width="188" height="62" rx="8" fill="#263b2b" stroke="#72c987" stroke-width="2"/>
<text class="name" x="496.0" y="616.0">Bounce Back</text>
<text class="detail" x="496.0" y="637.0">Ability · Cost 1 · Level 25</text>
<rect x="708.0" y="92.0" width="188" height="62" rx="8" fill="#133047" stroke="#54b8ed" stroke-width="2"/>
<text class="name" x="718.0" y="116.0">Piercing Strike</text>
<text class="detail" x="718.0" y="137.0">Ability · Cost 1</text>
<rect x="708.0" y="192.0" width="188" height="62" rx="8" fill="#133047" stroke="#54b8ed" stroke-width="2"/>
<text class="name" x="718.0" y="216.0">Quickstep</text>
<text class="detail" x="718.0" y="237.0">Ability · Cost 1 · Level 5</text>
<rect x="708.0" y="292.0" width="188" height="62" rx="8" fill="#17383a" stroke="#63d3ca" stroke-width="2"/>
<text class="name" x="718.0" y="316.0">+10 Attack</text>
<text class="detail" x="718.0" y="337.0">Rating · Cost 1</text>
<rect x="708.0" y="492.0" width="188" height="62" rx="8" fill="#133047" stroke="#54b8ed" stroke-width="2"/>
<text class="name" x="718.0" y="516.0">Parry</text>
<text class="detail" x="718.0" y="537.0">Ability · Cost 1 · Level 20</text>
<rect x="708.0" y="592.0" width="188" height="62" rx="8" fill="#133047" stroke="#54b8ed" stroke-width="2"/>
<text class="name" x="718.0" y="616.0">True Strike</text>
<text class="detail" x="718.0" y="637.0">Ability · Cost 1 · Level 25</text>
<rect x="930.0" y="92.0" width="188" height="62" rx="8" fill="#133047" stroke="#54b8ed" stroke-width="2"/>
<text class="name" x="940.0" y="116.0">Spirit Strike</text>
<text class="detail" x="940.0" y="137.0">Ability · Cost 1</text>
<rect x="930.0" y="192.0" width="188" height="62" rx="8" fill="#263b2b" stroke="#72c987" stroke-width="2"/>
<text class="name" x="940.0" y="216.0">Conversion</text>
<text class="detail" x="940.0" y="237.0">Ability · Cost 1 · Level 5</text>
<rect x="930.0" y="292.0" width="188" height="62" rx="8" fill="#17383a" stroke="#63d3ca" stroke-width="2"/>
<text class="name" x="940.0" y="316.0">+25 MP</text>
<text class="detail" x="940.0" y="337.0">Mana · Cost 1</text>
<rect x="930.0" y="392.0" width="188" height="62" rx="8" fill="#133047" stroke="#54b8ed" stroke-width="2"/>
<text class="name" x="940.0" y="416.0">Hydration</text>
<text class="detail" x="940.0" y="437.0">Ability · Cost 1 · Level 15</text>
<rect x="930.0" y="492.0" width="188" height="62" rx="8" fill="#263b2b" stroke="#72c987" stroke-width="2"/>
<text class="name" x="940.0" y="516.0">Very Superstitious</text>
<text class="detail" x="940.0" y="537.0">Ability · Cost 1 · Level 20</text>
<rect x="930.0" y="592.0" width="188" height="62" rx="8" fill="#133047" stroke="#54b8ed" stroke-width="2"/>
<text class="name" x="940.0" y="616.0">Primal Trance</text>
<text class="detail" x="940.0" y="637.0">Ability · Cost 1 · Level 25</text>
<rect x="1152.0" y="92.0" width="188" height="62" rx="8" fill="#133047" stroke="#54b8ed" stroke-width="2"/>
<text class="name" x="1162.0" y="116.0">Tremor</text>
<text class="detail" x="1162.0" y="137.0">Ability · Cost 1</text>
<rect x="1152.0" y="192.0" width="188" height="62" rx="8" fill="#133047" stroke="#54b8ed" stroke-width="2"/>
<text class="name" x="1162.0" y="216.0">Water Jet</text>
<text class="detail" x="1162.0" y="237.0">Ability · Cost 1 · Level 5</text>
<rect x="1152.0" y="292.0" width="188" height="62" rx="8" fill="#133047" stroke="#54b8ed" stroke-width="2"/>
<text class="name" x="1162.0" y="316.0">Gust</text>
<text class="detail" x="1162.0" y="337.0">Ability · Cost 1 · Level 10</text>
<rect x="1152.0" y="392.0" width="188" height="62" rx="8" fill="#133047" stroke="#54b8ed" stroke-width="2"/>
<text class="name" x="1162.0" y="416.0">Scorch</text>
<text class="detail" x="1162.0" y="437.0">Ability · Cost 1 · Level 15</text>
<rect x="1152.0" y="492.0" width="188" height="62" rx="8" fill="#263b2b" stroke="#72c987" stroke-width="2"/>
<text class="name" x="1162.0" y="516.0">Fundamental Harmony</text>
<text class="detail" x="1162.0" y="537.0">Ability · Cost 1 · Level 20</text>
<rect x="1152.0" y="592.0" width="188" height="62" rx="8" fill="#133047" stroke="#54b8ed" stroke-width="2"/>
<text class="name" x="1162.0" y="616.0">Detect Elemental</text>
<text class="detail" x="1162.0" y="637.0">Ability · Cost 1 · Level 25</text>
<rect x="1374.0" y="92.0" width="188" height="62" rx="8" fill="#263b2b" stroke="#72c987" stroke-width="2"/>
<text class="name" x="1384.0" y="116.0">Intensify Elements</text>
<text class="detail" x="1384.0" y="137.0">Ability · Cost 1</text>
<rect x="1374.0" y="192.0" width="188" height="62" rx="8" fill="#263b2b" stroke="#72c987" stroke-width="2"/>
<text class="name" x="1384.0" y="216.0">Chronology</text>
<text class="detail" x="1384.0" y="237.0">Ability · Cost 1 · Level 5</text>
<rect x="1374.0" y="292.0" width="188" height="62" rx="8" fill="#17383a" stroke="#63d3ca" stroke-width="2"/>
<text class="name" x="1384.0" y="316.0">+10 Magic</text>
<text class="detail" x="1384.0" y="337.0">Rating · Cost 1</text>
<rect x="1374.0" y="392.0" width="188" height="62" rx="8" fill="#133047" stroke="#54b8ed" stroke-width="2"/>
<text class="name" x="1384.0" y="416.0">Blinding Fog</text>
<text class="detail" x="1384.0" y="437.0">Ability · Cost 1 · Level 15</text>
<rect x="1374.0" y="492.0" width="188" height="62" rx="8" fill="#133047" stroke="#54b8ed" stroke-width="2"/>
<text class="name" x="1384.0" y="516.0">Geomancy</text>
<text class="detail" x="1384.0" y="537.0">Ability · Cost 1 · Level 20</text>
<rect x="1374.0" y="592.0" width="188" height="62" rx="8" fill="#133047" stroke="#54b8ed" stroke-width="2"/>
<text class="name" x="1384.0" y="616.0">Control Z</text>
<text class="detail" x="1384.0" y="637.0">Ability · Cost 1 · Level 25</text>
<rect x="153.0" y="692.0" width="188" height="62" rx="8" fill="#3b2d12" stroke="#f4bf2a" stroke-width="2"/>
<text class="name" x="163.0" y="716.0">Promote: Druid</text>
<text class="detail" x="163.0" y="737.0">Promotion · Cost 2 · Level 30</text>
<rect x="486.0" y="692.0" width="188" height="62" rx="8" fill="#3b2d12" stroke="#f4bf2a" stroke-width="2"/>
<text class="name" x="496.0" y="716.0">Promote: Ranger</text>
<text class="detail" x="496.0" y="737.0">Promotion · Cost 2 · Level 30</text>
<rect x="930.0" y="692.0" width="188" height="62" rx="8" fill="#3b2d12" stroke="#f4bf2a" stroke-width="2"/>
<text class="name" x="940.0" y="716.0">Promote: Shaman</text>
<text class="detail" x="940.0" y="737.0">Promotion · Cost 2 · Level 30</text>
<rect x="1263.0" y="692.0" width="188" height="62" rx="8" fill="#3b2d12" stroke="#f4bf2a" stroke-width="2"/>
<text class="name" x="1273.0" y="716.0">Promote: Diviner</text>
<text class="detail" x="1273.0" y="737.0">Promotion · Cost 2 · Level 30</text>
</svg>
