<?xml version="1.0" encoding="UTF-8"?>
<svg xmlns="http://www.w3.org/2000/svg" width="272" height="796" viewBox="0 0 272 796">
<style>
text{font-family:DejaVu Sans,Arial,sans-serif}
.title{fill:#f4bf2a;font-size:24px;font-weight:700}
.meta{fill:#aab2bf;font-size:12px}
.name{fill:#f4f6fa;font-size:13px;font-weight:700}
.detail{fill:#c5ccd6;font-size:11px}
.resource{fill:#e6bfdc;font-size:9px;font-weight:700}
.edge{fill:none;stroke:#7f8998;stroke-width:2}
.promotion-edge{fill:none;stroke:#c59d3d;stroke-width:3}
</style>
<rect width="272" height="796" fill="#10131a"/>
<text class="title" x="42" y="38">Archdruid Ability Tree</text>
<text class="meta" x="42" y="62">Tier 3 · 7 nodes · Fourfold Balance · Aspect Harmony</text>
<path class="edge" d="M 136.0 123.0 V 173.0 H 136.0 V 223.0"/>
<path class="edge" d="M 136.0 223.0 V 273.0 H 136.0 V 323.0"/>
<path class="edge" d="M 136.0 323.0 V 373.0 H 136.0 V 423.0"/>
<path class="edge" d="M 136.0 423.0 V 473.0 H 136.0 V 523.0"/>
<path class="edge" d="M 136.0 523.0 V 573.0 H 136.0 V 623.0"/>
<path class="edge" d="M 136.0 623.0 V 673.0 H 136.0 V 723.0"/>
<rect x="42.0" y="92.0" width="188" height="62" rx="8" fill="#133047" stroke="#54b8ed" stroke-width="2"/>
<text class="name" x="52.0" y="116.0">Plant Seeds</text>
<text class="detail" x="52.0" y="137.0">Ability · Cost 1 · Level 65</text>
<rect x="42.0" y="192.0" width="188" height="62" rx="8" fill="#133047" stroke="#54b8ed" stroke-width="2"/>
<text class="name" x="52.0" y="216.0">Bolt</text>
<text class="detail" x="52.0" y="237.0">Ability · Cost 1 · Level 70</text>
<rect x="42.0" y="292.0" width="188" height="62" rx="8" fill="#133047" stroke="#54b8ed" stroke-width="2"/>
<text class="name" x="52.0" y="316.0">Vile Potion</text>
<text class="detail" x="52.0" y="337.0">Ability · Cost 1 · Level 75</text>
<rect x="42.0" y="392.0" width="188" height="62" rx="8" fill="#133047" stroke="#54b8ed" stroke-width="2"/>
<text class="name" x="52.0" y="416.0">Windswept</text>
<text class="detail" x="52.0" y="437.0">Ability · Cost 1 · Level 80</text>
<rect x="42.0" y="492.0" width="188" height="62" rx="8" fill="#133047" stroke="#54b8ed" stroke-width="2"/>
<text class="name" x="52.0" y="516.0">Fourfold Surge</text>
<text class="detail" x="52.0" y="537.0">Ability · Cost 1 · Level 85</text>
<rect x="42.0" y="592.0" width="188" height="62" rx="8" fill="#133047" stroke="#54b8ed" stroke-width="2"/>
<text class="name" x="52.0" y="616.0">Nature Shield</text>
<text class="detail" x="52.0" y="637.0">Ability · Cost 1 · Level 90</text>
<rect x="42.0" y="692.0" width="188" height="62" rx="8" fill="#133047" stroke="#54b8ed" stroke-width="2"/>
<text class="name" x="52.0" y="716.0">Ball Lightning</text>
<text class="detail" x="52.0" y="737.0">Ability · Cost 1 · Level 95</text>
</svg>
