<?xml version="1.0" encoding="UTF-8"?>
<svg xmlns="http://www.w3.org/2000/svg" width="1382" height="796" viewBox="0 0 1382 796">
<style>
text{font-family:DejaVu Sans,Arial,sans-serif}
.title{fill:#f4bf2a;font-size:24px;font-weight:700}
.meta{fill:#aab2bf;font-size:12px}
.name{fill:#f4f6fa;font-size:13px;font-weight:700}
.detail{fill:#c5ccd6;font-size:11px}
.edge{fill:none;stroke:#7f8998;stroke-width:2}
</style>
<rect width="1382" height="796" fill="#10131a"/>
<text class="title" x="42" y="38">Warrior Ability Tree</text>
<text class="meta" x="42" y="62">Tier 1 · 34 nodes · Arms · Vanguard · Bulwark · Command · Independent</text>
<path class="edge" d="M 247.0 123.0 V 173.0 H 247.0 V 223.0"/>
<path class="edge" d="M 247.0 223.0 V 273.0 H 136.0 V 323.0"/>
<path class="edge" d="M 136.0 323.0 V 373.0 H 136.0 V 423.0"/>
<path class="edge" d="M 136.0 423.0 V 473.0 H 136.0 V 523.0"/>
<path class="edge" d="M 136.0 523.0 V 573.0 H 136.0 V 623.0"/>
<path class="edge" d="M 247.0 223.0 V 273.0 H 358.0 V 323.0"/>
<path class="edge" d="M 358.0 323.0 V 373.0 H 358.0 V 423.0"/>
<path class="edge" d="M 358.0 423.0 V 473.0 H 358.0 V 523.0"/>
<path class="edge" d="M 358.0 523.0 V 573.0 H 358.0 V 623.0"/>
<path class="edge" d="M 691.0 123.0 V 173.0 H 691.0 V 223.0"/>
<path class="edge" d="M 691.0 223.0 V 273.0 H 580.0 V 323.0"/>
<path class="edge" d="M 580.0 323.0 V 373.0 H 580.0 V 423.0"/>
<path class="edge" d="M 580.0 423.0 V 473.0 H 580.0 V 523.0"/>
<path class="edge" d="M 580.0 523.0 V 573.0 H 580.0 V 623.0"/>
<path class="edge" d="M 691.0 223.0 V 273.0 H 802.0 V 323.0"/>
<path class="edge" d="M 802.0 323.0 V 373.0 H 802.0 V 423.0"/>
<path class="edge" d="M 802.0 423.0 V 473.0 H 802.0 V 523.0"/>
<path class="edge" d="M 802.0 523.0 V 573.0 H 802.0 V 623.0"/>
<path class="edge" d="M 1024.0 123.0 V 173.0 H 1024.0 V 223.0"/>
<path class="edge" d="M 1024.0 223.0 V 273.0 H 1024.0 V 323.0"/>
<path class="edge" d="M 1024.0 323.0 V 373.0 H 1024.0 V 423.0"/>
<path class="edge" d="M 1024.0 423.0 V 473.0 H 1024.0 V 523.0"/>
<path class="edge" d="M 1246.0 123.0 V 173.0 H 1246.0 V 223.0"/>
<path class="edge" d="M 1246.0 223.0 V 273.0 H 1246.0 V 323.0"/>
<path class="edge" d="M 1246.0 323.0 V 373.0 H 1246.0 V 423.0"/>
<path class="edge" d="M 1246.0 423.0 V 473.0 H 1246.0 V 523.0"/>
<path class="edge" d="M 136.0 623.0 V 673.0 H 136.0 V 723.0"/>
<path class="edge" d="M 358.0 623.0 V 673.0 H 358.0 V 723.0"/>
<path class="edge" d="M 580.0 623.0 V 673.0 H 580.0 V 723.0"/>
<path class="edge" d="M 802.0 623.0 V 673.0 H 802.0 V 723.0"/>
<rect x="153.0" y="92.0" width="188" height="62" rx="8" fill="#133047" stroke="#54b8ed" stroke-width="2"/>
<text class="name" x="163.0" y="116.0">Piercing Strike</text>
<text class="detail" x="163.0" y="137.0">Ability · Cost 1</text>
<rect x="153.0" y="192.0" width="188" height="62" rx="8" fill="#133047" stroke="#54b8ed" stroke-width="2"/>
<text class="name" x="163.0" y="216.0">Charge</text>
<text class="detail" x="163.0" y="237.0">Ability · Cost 1 · Level 5</text>
<rect x="42.0" y="292.0" width="188" height="62" rx="8" fill="#263b2b" stroke="#72c987" stroke-width="2"/>
<text class="name" x="52.0" y="316.0">Weapon Focus</text>
<text class="detail" x="52.0" y="337.0">Ability · Cost 1 · Level 10</text>
<rect x="42.0" y="392.0" width="188" height="62" rx="8" fill="#17383a" stroke="#63d3ca" stroke-width="2"/>
<text class="name" x="52.0" y="416.0">+10 Attack</text>
<text class="detail" x="52.0" y="437.0">Rating · Cost 1</text>
<rect x="42.0" y="492.0" width="188" height="62" rx="8" fill="#133047" stroke="#54b8ed" stroke-width="2"/>
<text class="name" x="52.0" y="516.0">Cripple</text>
<text class="detail" x="52.0" y="537.0">Ability · Cost 1 · Level 20</text>
<rect x="42.0" y="592.0" width="188" height="62" rx="8" fill="#133047" stroke="#54b8ed" stroke-width="2"/>
<text class="name" x="52.0" y="616.0">True Strike</text>
<text class="detail" x="52.0" y="637.0">Ability · Cost 1 · Level 25</text>
<rect x="264.0" y="292.0" width="188" height="62" rx="8" fill="#263b2b" stroke="#72c987" stroke-width="2"/>
<text class="name" x="274.0" y="316.0">Honed Attack</text>
<text class="detail" x="274.0" y="337.0">Ability · Cost 1 · Level 10</text>
<rect x="264.0" y="392.0" width="188" height="62" rx="8" fill="#133047" stroke="#54b8ed" stroke-width="2"/>
<text class="name" x="274.0" y="416.0">Driving Thrust</text>
<text class="detail" x="274.0" y="437.0">Ability · Cost 1 · Level 15</text>
<rect x="264.0" y="492.0" width="188" height="62" rx="8" fill="#17383a" stroke="#63d3ca" stroke-width="2"/>
<text class="name" x="274.0" y="516.0">+10 Defense</text>
<text class="detail" x="274.0" y="537.0">Rating · Cost 1</text>
<rect x="264.0" y="592.0" width="188" height="62" rx="8" fill="#133047" stroke="#54b8ed" stroke-width="2"/>
<text class="name" x="274.0" y="616.0">Retaliate</text>
<text class="detail" x="274.0" y="637.0">Ability · Cost 1 · Level 25</text>
<rect x="597.0" y="92.0" width="188" height="62" rx="8" fill="#133047" stroke="#54b8ed" stroke-width="2"/>
<text class="name" x="607.0" y="116.0">Shield Slam</text>
<text class="detail" x="607.0" y="137.0">Ability · Cost 1</text>
<rect x="597.0" y="192.0" width="188" height="62" rx="8" fill="#133047" stroke="#54b8ed" stroke-width="2"/>
<text class="name" x="607.0" y="216.0">Shield Block</text>
<text class="detail" x="607.0" y="237.0">Ability · Cost 1 · Level 5</text>
<rect x="486.0" y="292.0" width="188" height="62" rx="8" fill="#133047" stroke="#54b8ed" stroke-width="2"/>
<text class="name" x="496.0" y="316.0">Rally</text>
<text class="detail" x="496.0" y="337.0">Ability · Cost 1 · Level 10</text>
<rect x="486.0" y="392.0" width="188" height="62" rx="8" fill="#17383a" stroke="#63d3ca" stroke-width="2"/>
<text class="name" x="496.0" y="416.0">+10 Defense</text>
<text class="detail" x="496.0" y="437.0">Rating · Cost 1</text>
<rect x="486.0" y="492.0" width="188" height="62" rx="8" fill="#133047" stroke="#54b8ed" stroke-width="2"/>
<text class="name" x="496.0" y="516.0">Dishearten</text>
<text class="detail" x="496.0" y="537.0">Ability · Cost 1 · Level 20</text>
<rect x="486.0" y="592.0" width="188" height="62" rx="8" fill="#263b2b" stroke="#72c987" stroke-width="2"/>
<text class="name" x="496.0" y="616.0">Aggressive Pursuit</text>
<text class="detail" x="496.0" y="637.0">Ability · Cost 1 · Level 25</text>
<rect x="708.0" y="292.0" width="188" height="62" rx="8" fill="#133047" stroke="#54b8ed" stroke-width="2"/>
<text class="name" x="718.0" y="316.0">Goad</text>
<text class="detail" x="718.0" y="337.0">Ability · Cost 1 · Level 10</text>
<rect x="708.0" y="392.0" width="188" height="62" rx="8" fill="#263b2b" stroke="#72c987" stroke-width="2"/>
<text class="name" x="718.0" y="416.0">Chastise</text>
<text class="detail" x="718.0" y="437.0">Ability · Cost 1 · Level 15</text>
<rect x="708.0" y="492.0" width="188" height="62" rx="8" fill="#17383a" stroke="#63d3ca" stroke-width="2"/>
<text class="name" x="718.0" y="516.0">+10 Magic Defense</text>
<text class="detail" x="718.0" y="537.0">Rating · Cost 1</text>
<rect x="708.0" y="592.0" width="188" height="62" rx="8" fill="#263b2b" stroke="#72c987" stroke-width="2"/>
<text class="name" x="718.0" y="616.0">Commitment</text>
<text class="detail" x="718.0" y="637.0">Ability · Cost 1 · Level 25</text>
<rect x="930.0" y="92.0" width="188" height="62" rx="8" fill="#133047" stroke="#54b8ed" stroke-width="2"/>
<text class="name" x="940.0" y="116.0">Disarm</text>
<text class="detail" x="940.0" y="137.0">Ability · Cost 1</text>
<rect x="930.0" y="192.0" width="188" height="62" rx="8" fill="#17383a" stroke="#63d3ca" stroke-width="2"/>
<text class="name" x="940.0" y="216.0">+10 Defense</text>
<text class="detail" x="940.0" y="237.0">Rating · Cost 1</text>
<rect x="930.0" y="292.0" width="188" height="62" rx="8" fill="#263b2b" stroke="#72c987" stroke-width="2"/>
<text class="name" x="940.0" y="316.0">Improved Defend</text>
<text class="detail" x="940.0" y="337.0">Ability · Cost 1 · Level 10</text>
<rect x="930.0" y="392.0" width="188" height="62" rx="8" fill="#133047" stroke="#54b8ed" stroke-width="2"/>
<text class="name" x="940.0" y="416.0">Upsurge</text>
<text class="detail" x="940.0" y="437.0">Ability · Cost 1 · Level 15</text>
<rect x="930.0" y="492.0" width="188" height="62" rx="8" fill="#133047" stroke="#54b8ed" stroke-width="2"/>
<text class="name" x="940.0" y="516.0">Parry</text>
<text class="detail" x="940.0" y="537.0">Ability · Cost 1 · Level 20</text>
<rect x="1152.0" y="92.0" width="188" height="62" rx="8" fill="#133047" stroke="#54b8ed" stroke-width="2"/>
<text class="name" x="1162.0" y="116.0">Battle Cry</text>
<text class="detail" x="1162.0" y="137.0">Ability · Cost 1</text>
<rect x="1152.0" y="192.0" width="188" height="62" rx="8" fill="#133047" stroke="#54b8ed" stroke-width="2"/>
<text class="name" x="1162.0" y="216.0">Adrenaline</text>
<text class="detail" x="1162.0" y="237.0">Ability · Cost 1 · Level 5</text>
<rect x="1152.0" y="292.0" width="188" height="62" rx="8" fill="#17383a" stroke="#63d3ca" stroke-width="2"/>
<text class="name" x="1162.0" y="316.0">+25 HP</text>
<text class="detail" x="1162.0" y="337.0">Health · Cost 1</text>
<rect x="1152.0" y="392.0" width="188" height="62" rx="8" fill="#133047" stroke="#54b8ed" stroke-width="2"/>
<text class="name" x="1162.0" y="416.0">Double Strike</text>
<text class="detail" x="1162.0" y="437.0">Ability · Cost 1 · Level 15</text>
<rect x="1152.0" y="492.0" width="188" height="62" rx="8" fill="#133047" stroke="#54b8ed" stroke-width="2"/>
<text class="name" x="1162.0" y="516.0">Achilles Heel</text>
<text class="detail" x="1162.0" y="537.0">Ability · Cost 1 · Level 20</text>
<rect x="42.0" y="692.0" width="188" height="62" rx="8" fill="#3b2d12" stroke="#f4bf2a" stroke-width="2"/>
<text class="name" x="52.0" y="716.0">Promote: Weapon Master</text>
<text class="detail" x="52.0" y="737.0">Promotion · Cost 2 · Level 30</text>
<rect x="264.0" y="692.0" width="188" height="62" rx="8" fill="#3b2d12" stroke="#f4bf2a" stroke-width="2"/>
<text class="name" x="274.0" y="716.0">Promote: Lancer</text>
<text class="detail" x="274.0" y="737.0">Promotion · Cost 2 · Level 30</text>
<rect x="486.0" y="692.0" width="188" height="62" rx="8" fill="#3b2d12" stroke="#f4bf2a" stroke-width="2"/>
<text class="name" x="496.0" y="716.0">Promote: Sentinel</text>
<text class="detail" x="496.0" y="737.0">Promotion · Cost 2 · Level 30</text>
<rect x="708.0" y="692.0" width="188" height="62" rx="8" fill="#3b2d12" stroke="#f4bf2a" stroke-width="2"/>
<text class="name" x="718.0" y="716.0">Promote: Paladin</text>
<text class="detail" x="718.0" y="737.0">Promotion · Cost 2 · Level 30</text>
</svg>
