<?xml version="1.0" encoding="UTF-8"?>
<svg xmlns="http://www.w3.org/2000/svg" width="1160" height="696" viewBox="0 0 1160 696">
<style>
text{font-family:DejaVu Sans,Arial,sans-serif}
.title{fill:#f4bf2a;font-size:24px;font-weight:700}
.meta{fill:#aab2bf;font-size:12px}
.name{fill:#f4f6fa;font-size:13px;font-weight:700}
.detail{fill:#c5ccd6;font-size:11px}
.resource{fill:#e6bfdc;font-size:9px;font-weight:700}
.edge{fill:none;stroke:#7f8998;stroke-width:2}
.promotion-edge{fill:none;stroke:#c59d3d;stroke-width:3}
</style>
<rect width="1160" height="696" fill="#10131a"/>
<text class="title" x="42" y="38">Ninja Ability Tree</text>
<text class="meta" x="42" y="62">Tier 3 · 28 nodes · Utility · Combat · Toxin / Death · Stealth · Defense</text>
<path class="edge" d="M 136.0 123.0 V 173.0 H 136.0 V 223.0"/>
<path class="edge" d="M 136.0 223.0 V 273.0 H 136.0 V 323.0"/>
<path class="edge" d="M 136.0 323.0 V 423.0 H 136.0 V 523.0"/>
<path class="edge" d="M 358.0 123.0 V 173.0 H 358.0 V 223.0"/>
<path class="edge" d="M 358.0 223.0 V 273.0 H 358.0 V 323.0"/>
<path class="edge" d="M 358.0 323.0 V 373.0 H 358.0 V 423.0"/>
<path class="edge" d="M 358.0 423.0 V 473.0 H 358.0 V 523.0"/>
<path class="edge" d="M 358.0 523.0 V 573.0 H 358.0 V 623.0"/>
<path class="edge" d="M 580.0 123.0 V 173.0 H 580.0 V 223.0"/>
<path class="edge" d="M 580.0 223.0 V 273.0 H 580.0 V 323.0"/>
<path class="edge" d="M 580.0 323.0 V 373.0 H 580.0 V 423.0"/>
<path class="edge" d="M 580.0 423.0 V 473.0 H 580.0 V 523.0"/>
<path class="edge" d="M 580.0 523.0 V 573.0 H 580.0 V 623.0"/>
<path class="edge" d="M 802.0 123.0 V 173.0 H 802.0 V 223.0"/>
<path class="edge" d="M 802.0 223.0 V 273.0 H 802.0 V 323.0"/>
<path class="edge" d="M 802.0 323.0 V 373.0 H 802.0 V 423.0"/>
<path class="edge" d="M 802.0 423.0 V 473.0 H 802.0 V 523.0"/>
<path class="edge" d="M 802.0 523.0 V 573.0 H 802.0 V 623.0"/>
<path class="edge" d="M 1024.0 123.0 V 173.0 H 1024.0 V 223.0"/>
<path class="edge" d="M 1024.0 223.0 V 273.0 H 1024.0 V 323.0"/>
<path class="edge" d="M 1024.0 323.0 V 373.0 H 1024.0 V 423.0"/>
<path class="edge" d="M 1024.0 423.0 V 473.0 H 1024.0 V 523.0"/>
<path class="edge" d="M 1024.0 523.0 V 573.0 H 1024.0 V 623.0"/>
<rect x="42.0" y="92.0" width="188" height="62" rx="8" fill="#133047" stroke="#54b8ed" stroke-width="2"/>
<text class="name" x="52.0" y="116.0">Smoke Screen</text>
<text class="detail" x="52.0" y="137.0">Ability · Cost 1</text>
<rect x="42.0" y="192.0" width="188" height="62" rx="8" fill="#133047" stroke="#54b8ed" stroke-width="2"/>
<text class="name" x="52.0" y="216.0">Mug</text>
<text class="detail" x="52.0" y="237.0">Ability · Cost 1 · Level 65</text>
<rect x="42.0" y="292.0" width="188" height="62" rx="8" fill="#263b2b" stroke="#72c987" stroke-width="2"/>
<text class="name" x="52.0" y="316.0">Find Traps</text>
<text class="detail" x="52.0" y="337.0">Ability · Cost 1 · Level 70</text>
<rect x="42.0" y="492.0" width="188" height="62" rx="8" fill="#263b2b" stroke="#72c987" stroke-width="2"/>
<text class="name" x="52.0" y="516.0">Smash and Grab</text>
<text class="detail" x="52.0" y="537.0">Ability · Cost 2 · Level 80</text>
<rect x="264.0" y="92.0" width="188" height="62" rx="8" fill="#133047" stroke="#54b8ed" stroke-width="2"/>
<text class="name" x="274.0" y="116.0">Triple Strike</text>
<text class="detail" x="274.0" y="137.0">Ability · Cost 1</text>
<rect x="264.0" y="192.0" width="188" height="62" rx="8" fill="#133047" stroke="#54b8ed" stroke-width="2"/>
<text class="name" x="274.0" y="216.0">Momentum</text>
<text class="detail" x="274.0" y="237.0">Ability · Cost 1 · Level 65</text>
<rect x="264.0" y="292.0" width="188" height="62" rx="8" fill="#133047" stroke="#54b8ed" stroke-width="2"/>
<text class="name" x="274.0" y="316.0">Marked Shuriken</text>
<text class="detail" x="274.0" y="337.0">Ability · Cost 1 · Level 70</text>
<rect x="264.0" y="392.0" width="188" height="62" rx="8" fill="#133047" stroke="#54b8ed" stroke-width="2"/>
<text class="name" x="274.0" y="416.0">Flurry of Blades</text>
<text class="detail" x="274.0" y="437.0">Ability · Cost 1 · Level 75</text>
<rect x="264.0" y="492.0" width="188" height="62" rx="8" fill="#263b2b" stroke="#72c987" stroke-width="2"/>
<text class="name" x="274.0" y="516.0">Execution Rhythm</text>
<text class="detail" x="274.0" y="537.0">Ability · Cost 1 · Level 80</text>
<rect x="264.0" y="592.0" width="188" height="62" rx="8" fill="#133047" stroke="#54b8ed" stroke-width="2"/>
<text class="name" x="274.0" y="616.0">Thousand Cuts</text>
<text class="detail" x="274.0" y="637.0">Ability · Cost 2 · Level 85</text>
<rect x="486.0" y="92.0" width="188" height="62" rx="8" fill="#263b2b" stroke="#72c987" stroke-width="2"/>
<text class="name" x="496.0" y="116.0">Toxic Precision</text>
<text class="detail" x="496.0" y="137.0">Ability · Cost 1</text>
<rect x="486.0" y="192.0" width="188" height="62" rx="8" fill="#263b2b" stroke="#72c987" stroke-width="2"/>
<text class="name" x="496.0" y="216.0">Lingering Venom</text>
<text class="detail" x="496.0" y="237.0">Ability · Cost 1 · Level 65</text>
<rect x="486.0" y="292.0" width="188" height="62" rx="8" fill="#133047" stroke="#54b8ed" stroke-width="2"/>
<text class="name" x="496.0" y="316.0">Death Sentence</text>
<text class="detail" x="496.0" y="337.0">Ability · Cost 1 · Level 70</text>
<rect x="486.0" y="392.0" width="188" height="62" rx="8" fill="#263b2b" stroke="#72c987" stroke-width="2"/>
<text class="name" x="496.0" y="416.0">Coating Conservation</text>
<text class="detail" x="496.0" y="437.0">Ability · Cost 1 · Level 75</text>
<rect x="486.0" y="492.0" width="188" height="62" rx="8" fill="#263b2b" stroke="#72c987" stroke-width="2"/>
<text class="name" x="496.0" y="516.0">Potentiation</text>
<text class="detail" x="496.0" y="537.0">Ability · Cost 1 · Level 80</text>
<rect x="486.0" y="592.0" width="188" height="62" rx="8" fill="#263b2b" stroke="#72c987" stroke-width="2"/>
<text class="name" x="496.0" y="616.0">Black Lotus Mastery</text>
<text class="detail" x="496.0" y="637.0">Ability · Cost 2 · Level 85</text>
<rect x="708.0" y="92.0" width="188" height="62" rx="8" fill="#133047" stroke="#54b8ed" stroke-width="2"/>
<text class="name" x="718.0" y="116.0">Haste</text>
<text class="detail" x="718.0" y="137.0">Ability · Cost 1</text>
<rect x="708.0" y="192.0" width="188" height="62" rx="8" fill="#133047" stroke="#54b8ed" stroke-width="2"/>
<text class="name" x="718.0" y="216.0">Invisibility</text>
<text class="detail" x="718.0" y="237.0">Ability · Cost 1 · Level 65</text>
<rect x="708.0" y="292.0" width="188" height="62" rx="8" fill="#133047" stroke="#54b8ed" stroke-width="2"/>
<text class="name" x="718.0" y="316.0">Silent Walking</text>
<text class="detail" x="718.0" y="337.0">Ability · Cost 1 · Level 70</text>
<rect x="708.0" y="392.0" width="188" height="62" rx="8" fill="#263b2b" stroke="#72c987" stroke-width="2"/>
<text class="name" x="718.0" y="416.0">Alacrity</text>
<text class="detail" x="718.0" y="437.0">Ability · Cost 1 · Level 75</text>
<rect x="708.0" y="492.0" width="188" height="62" rx="8" fill="#263b2b" stroke="#72c987" stroke-width="2"/>
<text class="name" x="718.0" y="516.0">Shadow Evasion</text>
<text class="detail" x="718.0" y="537.0">Ability · Cost 1 · Level 80</text>
<rect x="708.0" y="592.0" width="188" height="62" rx="8" fill="#263b2b" stroke="#72c987" stroke-width="2"/>
<text class="name" x="718.0" y="616.0">Ghost Step</text>
<text class="detail" x="718.0" y="637.0">Ability · Cost 2 · Level 85</text>
<rect x="930.0" y="92.0" width="188" height="62" rx="8" fill="#133047" stroke="#54b8ed" stroke-width="2"/>
<text class="name" x="940.0" y="116.0">Parry</text>
<text class="detail" x="940.0" y="137.0">Ability · Cost 1</text>
<rect x="930.0" y="192.0" width="188" height="62" rx="8" fill="#133047" stroke="#54b8ed" stroke-width="2"/>
<text class="name" x="940.0" y="216.0">Riposte</text>
<text class="detail" x="940.0" y="237.0">Ability · Cost 1 · Level 65</text>
<rect x="930.0" y="292.0" width="188" height="62" rx="8" fill="#133047" stroke="#54b8ed" stroke-width="2"/>
<text class="name" x="940.0" y="316.0">Quickstep</text>
<text class="detail" x="940.0" y="337.0">Ability · Cost 1 · Level 70</text>
<rect x="930.0" y="392.0" width="188" height="62" rx="8" fill="#133047" stroke="#54b8ed" stroke-width="2"/>
<text class="name" x="940.0" y="416.0">Evasive Guard</text>
<text class="detail" x="940.0" y="437.0">Ability · Cost 1 · Level 75</text>
<rect x="930.0" y="492.0" width="188" height="62" rx="8" fill="#263b2b" stroke="#72c987" stroke-width="2"/>
<text class="name" x="940.0" y="516.0">Shadow Counter</text>
<text class="detail" x="940.0" y="537.0">Ability · Cost 1 · Level 80</text>
<rect x="930.0" y="592.0" width="188" height="62" rx="8" fill="#263b2b" stroke="#72c987" stroke-width="2"/>
<text class="name" x="940.0" y="616.0">Untouchable</text>
<text class="detail" x="940.0" y="637.0">Ability · Cost 2 · Level 85</text>
</svg>
