<?xml version="1.0" encoding="UTF-8"?>
<svg xmlns="http://www.w3.org/2000/svg" width="494" height="896" viewBox="0 0 494 896">
<style>
text{font-family:DejaVu Sans,Arial,sans-serif}
.title{fill:#f4bf2a;font-size:24px;font-weight:700}
.meta{fill:#aab2bf;font-size:12px}
.name{fill:#f4f6fa;font-size:13px;font-weight:700}
.detail{fill:#c5ccd6;font-size:11px}
.edge{fill:none;stroke:#7f8998;stroke-width:2}
</style>
<rect width="494" height="896" fill="#10131a"/>
<text class="title" x="42" y="38">Ninja Ability Tree</text>
<text class="meta" x="42" y="62">Tier 3 · 14 nodes · Execution · No Trace</text>
<path class="edge" d="M 136.0 123.0 V 173.0 H 136.0 V 223.0"/>
<path class="edge" d="M 136.0 223.0 V 273.0 H 136.0 V 323.0"/>
<path class="edge" d="M 136.0 323.0 V 373.0 H 136.0 V 423.0"/>
<path class="edge" d="M 358.0 123.0 V 173.0 H 358.0 V 223.0"/>
<path class="edge" d="M 136.0 423.0 V 473.0 H 136.0 V 523.0"/>
<path class="edge" d="M 358.0 223.0 V 273.0 H 358.0 V 323.0"/>
<path class="edge" d="M 136.0 523.0 V 573.0 H 136.0 V 623.0"/>
<path class="edge" d="M 358.0 323.0 V 373.0 H 358.0 V 423.0"/>
<path class="edge" d="M 136.0 623.0 V 673.0 H 136.0 V 723.0"/>
<path class="edge" d="M 358.0 423.0 V 473.0 H 358.0 V 523.0"/>
<path class="edge" d="M 136.0 723.0 V 773.0 H 136.0 V 823.0"/>
<path class="edge" d="M 358.0 523.0 V 573.0 H 358.0 V 623.0"/>
<rect x="42.0" y="92.0" width="188" height="62" rx="8" fill="#133047" stroke="#54b8ed" stroke-width="2"/>
<text class="name" x="52.0" y="116.0">Mug</text>
<text class="detail" x="52.0" y="137.0">Ability · Cost 1 · Level 65</text>
<rect x="264.0" y="92.0" width="188" height="62" rx="8" fill="#133047" stroke="#54b8ed" stroke-width="2"/>
<text class="name" x="274.0" y="116.0">Haste</text>
<text class="detail" x="274.0" y="137.0">Ability · Cost 1 · Level 65</text>
<rect x="42.0" y="192.0" width="188" height="62" rx="8" fill="#133047" stroke="#54b8ed" stroke-width="2"/>
<text class="name" x="52.0" y="216.0">Desoul</text>
<text class="detail" x="52.0" y="237.0">Ability · Cost 1 · Level 70</text>
<rect x="42.0" y="292.0" width="188" height="62" rx="8" fill="#133047" stroke="#54b8ed" stroke-width="2"/>
<text class="name" x="52.0" y="316.0">Flurry of Blades</text>
<text class="detail" x="52.0" y="337.0">Ability · Cost 1 · Level 75</text>
<rect x="42.0" y="392.0" width="188" height="62" rx="8" fill="#263b2b" stroke="#72c987" stroke-width="2"/>
<text class="name" x="52.0" y="416.0">No-Trace Opener</text>
<text class="detail" x="52.0" y="437.0">Talent · Cost 1 · Level 80</text>
<rect x="264.0" y="192.0" width="188" height="62" rx="8" fill="#263b2b" stroke="#72c987" stroke-width="2"/>
<text class="name" x="274.0" y="216.0">Shadow Evasion</text>
<text class="detail" x="274.0" y="237.0">Talent · Cost 1 · Level 70</text>
<rect x="42.0" y="492.0" width="188" height="62" rx="8" fill="#263b2b" stroke="#72c987" stroke-width="2"/>
<text class="name" x="52.0" y="516.0">Execution Rhythm</text>
<text class="detail" x="52.0" y="537.0">Talent · Cost 1 · Level 85</text>
<rect x="264.0" y="292.0" width="188" height="62" rx="8" fill="#263b2b" stroke="#72c987" stroke-width="2"/>
<text class="name" x="274.0" y="316.0">Ghost Step</text>
<text class="detail" x="274.0" y="337.0">Talent · Cost 2 · Level 75</text>
<rect x="42.0" y="592.0" width="188" height="62" rx="8" fill="#263b2b" stroke="#72c987" stroke-width="2"/>
<text class="name" x="52.0" y="616.0">No-Trace Opener 2</text>
<text class="detail" x="52.0" y="637.0">Talent · Cost 1 · Level 90</text>
<rect x="264.0" y="392.0" width="188" height="62" rx="8" fill="#263b2b" stroke="#72c987" stroke-width="2"/>
<text class="name" x="274.0" y="416.0">Shadow Evasion 2</text>
<text class="detail" x="274.0" y="437.0">Talent · Cost 1 · Level 80</text>
<rect x="42.0" y="692.0" width="188" height="62" rx="8" fill="#263b2b" stroke="#72c987" stroke-width="2"/>
<text class="name" x="52.0" y="716.0">Execution Rhythm 2</text>
<text class="detail" x="52.0" y="737.0">Talent · Cost 1 · Level 95</text>
<rect x="264.0" y="492.0" width="188" height="62" rx="8" fill="#263b2b" stroke="#72c987" stroke-width="2"/>
<text class="name" x="274.0" y="516.0">Ghost Step 2</text>
<text class="detail" x="274.0" y="537.0">Talent · Cost 1 · Level 85</text>
<rect x="42.0" y="792.0" width="188" height="62" rx="8" fill="#263b2b" stroke="#72c987" stroke-width="2"/>
<text class="name" x="52.0" y="816.0">No-Trace Opener 3</text>
<text class="detail" x="52.0" y="837.0">Talent · Cost 2 · Level 95</text>
<rect x="264.0" y="592.0" width="188" height="62" rx="8" fill="#263b2b" stroke="#72c987" stroke-width="2"/>
<text class="name" x="274.0" y="616.0">Shadow Evasion 3</text>
<text class="detail" x="274.0" y="637.0">Talent · Cost 2 · Level 90</text>
</svg>
